<?xml version="1.0" encoding="UTF-8"?>
<svg version="1.1" xmlns="http://www.w3.org/2000/svg" width="32" height="32">
<path d="M0 0 C2.89589652 -0.02706445 5.79153795 -0.04687029 8.6875 -0.0625 C9.91243164 -0.07506836 9.91243164 -0.07506836 11.16210938 -0.08789062 C17.33409088 -0.1128784 22.27844216 0.54790378 28 3 C28 5.66053211 27.80664504 7.49940039 27 10 C26.34 10.66 25.68 11.32 25 12 C24.69940057 14.36509361 24.50484988 16.74441881 24.375 19.125 C24.30023437 20.40632813 24.22546875 21.68765625 24.1484375 23.0078125 C24.09945313 23.99523437 24.05046875 24.98265625 24 26 C20.56257082 26.05802698 17.12526747 26.09360486 13.6875 26.125 C12.71103516 26.14175781 11.73457031 26.15851562 10.72851562 26.17578125 C9.32182617 26.18544922 9.32182617 26.18544922 7.88671875 26.1953125 C7.02264404 26.20578613 6.15856934 26.21625977 5.26831055 26.22705078 C3 26 3 26 0 24 C-0.34057617 21.56982422 -0.34057617 21.56982422 -0.29296875 18.5546875 C-0.28330078 17.47832031 -0.27363281 16.40195312 -0.26367188 15.29296875 C-0.23853516 14.16503906 -0.21339844 13.03710938 -0.1875 11.875 C-0.17396484 10.73933594 -0.16042969 9.60367187 -0.14648438 8.43359375 C-0.11104319 5.62192613 -0.06163517 2.81119583 0 0 Z " fill="#9B94BC" transform="translate(2,3)"/>
<path d="M0 0 C5.28 0 10.56 0 16 0 C16.33 1.65 16.66 3.3 17 5 C14.86087578 7.94852257 12.56962967 10.43037033 10 13 C12.31 11.35 14.62 9.7 17 8 C17 11.96 17 15.92 17 20 C11.39 20 5.78 20 0 20 C0 13.4 0 6.8 0 0 Z " fill="#ABBEC8" transform="translate(8,8)"/>
<path d="M0 0 C5.28 0 10.56 0 16 0 C14.14418503 3.71162994 13.44285416 5.01775064 10 7 C9.01 6.67 8.02 6.34 7 6 C7 5.01 7 4.02 7 3 C5.35 3 3.7 3 2 3 C2.185625 3.7425 2.37125 4.485 2.5625 5.25 C2.99203108 7.94990963 2.85122974 9.44631077 2 12 C3.32 12.33 4.64 12.66 6 13 C4.68 13 3.36 13 2 13 C2 14.32 2 15.64 2 17 C3.95903745 16.52372025 5.91721097 16.04388577 7.875 15.5625 C8.96554688 15.29566406 10.05609375 15.02882813 11.1796875 14.75390625 C13.92484721 14.1213522 13.92484721 14.1213522 16 13 C16 14.98 16 16.96 16 19 C10.72 19 5.44 19 0 19 C0 12.73 0 6.46 0 0 Z " fill="#F2F2F9" transform="translate(8,8)"/>
<path d="M0 0 C5.94 0 11.88 0 18 0 C18 0.33 18 0.66 18 1 C12.39 1 6.78 1 1 1 C1 7.93 1 14.86 1 22 C2.32 22 3.64 22 5 22 C5 21.01 5 20.02 5 19 C4.34 19 3.68 19 3 19 C3 14.38 3 9.76 3 5 C3.99 5 4.98 5 6 5 C6 11.6 6 18.2 6 25 C11.61 25 17.22 25 23 25 C23 20.71 23 16.42 23 12 C23.33 12 23.66 12 24 12 C24 16.62 24 21.24 24 26 C20.56229171 26.05385444 17.12542358 26.09360344 13.6875 26.125 C12.71103516 26.14175781 11.73457031 26.15851562 10.72851562 26.17578125 C9.32182617 26.18544922 9.32182617 26.18544922 7.88671875 26.1953125 C7.02264404 26.20578613 6.15856934 26.21625977 5.26831055 26.22705078 C3 26 3 26 0 24 C-0.34057617 21.56982422 -0.34057617 21.56982422 -0.29296875 18.5546875 C-0.28330078 17.47832031 -0.27363281 16.40195312 -0.26367188 15.29296875 C-0.23853516 14.16503906 -0.21339844 13.03710938 -0.1875 11.875 C-0.17396484 10.73933594 -0.16042969 9.60367187 -0.14648438 8.43359375 C-0.11104658 5.62219515 -0.05723836 2.81103925 0 0 Z " fill="#29366A" transform="translate(2,3)"/>
<path d="M0 0 C5.28 0 10.56 0 16 0 C16 0.33 16 0.66 16 1 C12.04 1 8.08 1 4 1 C4 1.66 4 2.32 4 3 C3.34 3 2.68 3 2 3 C2.185625 3.7425 2.37125 4.485 2.5625 5.25 C2.99203108 7.94990963 2.85122974 9.44631077 2 12 C2.66 12.33 3.32 12.66 4 13 C3.34 13 2.68 13 2 13 C2 14.32 2 15.64 2 17 C2.66 17 3.32 17 4 17 C4 17.99 4 18.98 4 20 C2.68 20 1.36 20 0 20 C0 13.4 0 6.8 0 0 Z " fill="#EDEDF6" transform="translate(3,5)"/>
<path d="M0 0 C0.33 0 0.66 0 1 0 C1 3.96 1 7.92 1 12 C-4.61 12 -10.22 12 -16 12 C-16 11.67 -16 11.34 -16 11 C-10.72 11 -5.44 11 0 11 C-0.33 9.35 -0.66 7.7 -1 6 C-3.31 6.66 -5.62 7.32 -8 8 C-8.33 6.68 -8.66 5.36 -9 4 C-8.443125 4.268125 -7.88625 4.53625 -7.3125 4.8125 C-6.1678125 4.9053125 -6.1678125 4.9053125 -5 5 C-2.29151077 2.62494782 -2.29151077 2.62494782 0 0 Z " fill="#A8ABD1" transform="translate(24,16)"/>
<path d="M0 0 C0.33 1.32 0.66 2.64 1 4 C2.95903745 3.52372025 4.91721097 3.04388577 6.875 2.5625 C7.96554688 2.29566406 9.05609375 2.02882813 10.1796875 1.75390625 C12.92484721 1.1213522 12.92484721 1.1213522 15 0 C15 1.98 15 3.96 15 6 C10.05 6 5.1 6 0 6 C0 4.02 0 2.04 0 0 Z " fill="#FBFBFD" transform="translate(9,21)"/>
<path d="M0 0 C1.32 0 2.64 0 4 0 C4.33 0.66 4.66 1.32 5 2 C5.66 1.67 6.32 1.34 7 1 C6.34 3.31 5.68 5.62 5 8 C3.35 8.33 1.7 8.66 0 9 C0 6.03 0 3.06 0 0 Z " fill="#749795" transform="translate(10,16)"/>
<path d="M0 0 C-1.55500981 3.81684226 -4.03595495 6.19195732 -7 9 C-7.66 8.67 -8.32 8.34 -9 8 C-4.45945946 0 -4.45945946 0 0 0 Z " fill="#DEB41E" transform="translate(25,11)"/>
<path d="M0 0 C0.99 0.99 1.98 1.98 3 3 C-1.455 6.96 -1.455 6.96 -6 11 C-6.66 10.34 -7.32 9.68 -8 9 C-7.01 8.67 -6.02 8.34 -5 8 C-3.94978897 6.15028304 -3.94978897 6.15028304 -3 4 C-2.02418241 2.64886795 -1.02970259 1.31053056 0 0 Z " fill="#897350" transform="translate(25,11)"/>
<path d="M0 0 C0.66 0 1.32 0 2 0 C1.67 1.32 1.34 2.64 1 4 C-1.31 4.66 -3.62 5.32 -6 6 C-6.33 4.68 -6.66 3.36 -7 2 C-6.401875 2.226875 -5.80375 2.45375 -5.1875 2.6875 C-4.465625 2.790625 -3.74375 2.89375 -3 3 C-1.35405861 1.60411246 -1.35405861 1.60411246 0 0 Z " fill="#CBCDE3" transform="translate(22,18)"/>
<path d="M0 0 C1.45945288 0.08708669 2.91765868 0.19526907 4.375 0.3125 C5.59316406 0.39951172 5.59316406 0.39951172 6.8359375 0.48828125 C9 1 9 1 11 4 C9.02 4.33 7.04 4.66 5 5 C5 4.34 5 3.68 5 3 C3.35 3 1.7 3 0 3 C0 2.01 0 1.02 0 0 Z " fill="#2E2C6D" transform="translate(20,4)"/>
<path d="M0 0 C0.33 0 0.66 0 1 0 C1 4.62 1 9.24 1 14 C0.67 14 0.34 14 0 14 C0 12.02 0 10.04 0 8 C-0.66 8 -1.32 8 -2 8 C-2 6.68 -2 5.36 -2 4 C-1.34 4 -0.68 4 0 4 C0 2.68 0 1.36 0 0 Z " fill="#5F7D99" transform="translate(7,14)"/>
<path d="M0 0 C0.33 0 0.66 0 1 0 C1 7.26 1 14.52 1 22 C0.67 22 0.34 22 0 22 C0 14.74 0 7.48 0 0 Z " fill="#5A60A6" transform="translate(0,4)"/>
<path d="M0 0 C5.94 0 11.88 0 18 0 C18 0.33 18 0.66 18 1 C12.06 1 6.12 1 0 1 C0 0.67 0 0.34 0 0 Z " fill="#2E368D" transform="translate(7,30)"/>
<path d="M0 0 C5.94 0 11.88 0 18 0 C18 0.33 18 0.66 18 1 C12.06 1 6.12 1 0 1 C0 0.67 0 0.34 0 0 Z " fill="#242C88" transform="translate(2,1)"/>
<path d="M0 0 C0.33 0 0.66 0 1 0 C1 4.29 1 8.58 1 13 C0.67 13 0.34 13 0 13 C0 8.71 0 4.42 0 0 Z " fill="#242C88" transform="translate(27,15)"/>
<path d="" fill="#694486" transform="translate(0,0)"/>
<path d="" fill="#2D3283" transform="translate(0,0)"/>
<path d="" fill="#2C308B" transform="translate(0,0)"/>
<path d="" fill="#293B93" transform="translate(0,0)"/>
<path d="" fill="#303187" transform="translate(0,0)"/>
</svg>
